<?xml version="1.0" encoding="UTF-8"?>
<svg width="88px" height="78px" viewBox="0 0 88 78" version="1.1" xmlns="http://www.w3.org/2000/svg" xmlns:xlink="http://www.w3.org/1999/xlink">
    <title>Group</title>
    <defs>
        <linearGradient x1="-0.128205123%" y1="50.0037089%" x2="99.7435857%" y2="50.0037089%" id="linearGradient-1">
            <stop stop-color="#F2CC0C" offset="0%"></stop>
            <stop stop-color="#FF9830" offset="100%"></stop>
        </linearGradient>
    </defs>
    <g id="Page-1" stroke="none" stroke-width="1" fill="none" fill-rule="evenodd">
        <g id="Group" fill-rule="nonzero">
            <g id="logo">
                <path d="M83.4871795,0 L4.51282051,0 C2.02045856,0 0,2.06882639 0,4.62085308 L0,73.3791469 C0,75.9311736 2.02045856,78 4.51282051,78 L83.4871795,78 C85.9795414,78 88,75.9311736 88,73.3791469 L88,4.62085308 C88,2.06882639 85.9795414,0 83.4871795,0 Z M4,73 L4,11 L84,11 L84,73 L4,73 Z" id="Shape" fill="#3865AB"></path>
                <rect id="Rectangle" fill="#84AFF1" x="69" y="57.74" width="7" height="8"></rect>
                <rect id="Rectangle" fill="#84AFF1" x="57" y="55.74" width="8" height="10"></rect>
                <rect id="Rectangle" fill="#84AFF1" x="46" y="51.74" width="8" height="14"></rect>
                <rect id="Rectangle" fill="#84AFF1" x="35" y="38.74" width="8" height="27"></rect>
                <rect id="Rectangle" fill="#84AFF1" x="24" y="33.74" width="8" height="32"></rect>
                <rect id="Rectangle" fill="#84AFF1" x="13" y="28.74" width="8" height="37"></rect>
            </g>
            <path d="M74.9617423,17.0647308 C75.2023667,18.4243135 74.2952718,19.7215377 72.9356891,19.9621621 L63.7971904,21.5623674 L60.0134804,22.2009924 L58.1680141,22.4951704 L57.1894527,22.6380373 L56.8045156,22.6881328 L56.464,22.7249726 L56.1392767,22.813026 L55.5277401,22.9957903 L54.8967385,23.1946409 L53.5721641,23.6278328 L51.6383502,24.2796444 L48.7211124,25.2847002 L43.1556044,27.2379382 L40.105,28.3189726 L26.68,36.8889726 L19.2110415,51.0447184 C18.5935146,52.2149627 17.1788959,52.6931194 15.9873275,52.1637958 L15.8332543,52.0890141 C14.66301,51.4714872 14.1848532,50.0568685 14.7141769,48.8653001 L14.7889585,48.7112269 L22.5671174,33.9712269 C22.7404647,33.6427252 22.9844501,33.3576802 23.2806427,33.1361113 L23.4330042,33.0307093 L37.6548453,23.952311 C37.8139818,23.8507275 37.9841131,23.7674972 38.1619856,23.704212 L46.0970799,20.8998457 L48.6577305,20.0108658 L50.5519223,19.3648591 L52.1427603,18.8358741 L53.7729978,18.3184238 L54.490478,18.1059113 L54.9736605,17.972637 L55.3799762,17.8708516 L55.7129751,17.7994794 L55.8530901,17.7748621 L56.0315302,17.7513941 L56.2204458,17.7405794 L56.4891974,17.7060689 L57.3548566,17.573089 L60.3481321,17.0769807 L66.1099381,16.084992 L72.0643109,15.0386776 C73.4238937,14.7980532 74.7211179,15.7051481 74.9617423,17.0647308 Z" id="Path-2" fill="url(#linearGradient-1)"></path>
        </g>
    </g>
</svg>