<?xml version="1.0" encoding="UTF-8" standalone="no"?><!DOCTYPE svg PUBLIC "-//W3C//DTD SVG 1.1//EN" "http://www.w3.org/Graphics/SVG/1.1/DTD/svg11.dtd"><svg width="100%" height="100%" viewBox="0 0 460 460" version="1.1" xmlns="http://www.w3.org/2000/svg" xmlns:xlink="http://www.w3.org/1999/xlink" xml:space="preserve" xmlns:serif="http://www.serif.com/" style="fill-rule:evenodd;clip-rule:evenodd;stroke-linejoin:round;stroke-miterlimit:2;"><path d="M459.47,5.514c0,-3.043 -2.47,-5.514 -5.514,-5.514l-448.442,0c-3.043,0 -5.514,2.471 -5.514,5.514l-0,448.442c-0,3.044 2.471,5.514 5.514,5.514l448.442,0c3.044,0 5.514,-2.47 5.514,-5.514l0,-448.442Zm-21.707,21.602c-0,-2.985 -2.424,-5.408 -5.409,-5.408l-405.238,-0c-2.985,-0 -5.408,2.423 -5.408,5.408l-0,405.238c-0,2.985 2.423,5.409 5.408,5.409l405.238,-0c2.985,-0 5.409,-2.424 5.409,-5.409l-0,-405.238Z" style="fill:#84aff1;"/><path d="M413.209,379.811c-0,-2.989 -2.428,-5.416 -5.417,-5.416l-140.973,-0c-2.989,-0 -5.417,2.427 -5.417,5.416l0,27.981c0,2.989 2.428,5.417 5.417,5.417l140.973,-0c2.989,-0 5.417,-2.428 5.417,-5.417l-0,-27.981Z" style="fill:url(#_Linear1);"/><path d="M413.209,314.185c-0,-2.99 -2.428,-5.417 -5.417,-5.417l-149.279,-0c-2.99,-0 -5.417,2.427 -5.417,5.417l0,27.98c0,2.99 2.427,5.417 5.417,5.417l149.279,-0c2.989,-0 5.417,-2.427 5.417,-5.417l-0,-27.98Z" style="fill:#84aff1;"/><path d="M310.097,182.931c0,-2.989 -2.427,-5.416 -5.417,-5.416l-220.198,-0c-2.99,-0 -5.417,2.427 -5.417,5.416l-0,27.981c-0,2.99 2.427,5.417 5.417,5.417l220.198,-0c2.99,-0 5.417,-2.427 5.417,-5.417l0,-27.981Z" style="fill:#3865ab;"/><path d="M373.126,248.558c0,-2.99 -2.427,-5.417 -5.417,-5.417l-212.613,0c-2.99,0 -5.417,2.427 -5.417,5.417l-0,27.981c-0,2.989 2.427,5.416 5.417,5.416l212.613,0c2.99,0 5.417,-2.427 5.417,-5.416l0,-27.981Z" style="fill:#3865ab;"/><path d="M310.097,117.305c0,-2.99 -2.427,-5.417 -5.417,-5.417l-220.198,0c-2.99,0 -5.417,2.427 -5.417,5.417l-0,27.981c-0,2.989 2.427,5.416 5.417,5.416l220.198,0c2.99,0 5.417,-2.427 5.417,-5.416l0,-27.981Z" style="fill:url(#_Linear2);"/><path d="M179.145,51.678c-0,-2.989 -2.427,-5.416 -5.417,-5.416l-122.05,-0c-2.989,-0 -5.416,2.427 -5.416,5.416l-0,27.981c-0,2.989 2.427,5.417 5.416,5.417l122.05,-0c2.99,-0 5.417,-2.428 5.417,-5.417l-0,-27.981Z" style="fill:#3865ab;"/><defs><linearGradient id="_Linear1" x1="0" y1="0" x2="1" y2="0" gradientUnits="userSpaceOnUse" gradientTransform="matrix(9.29544e-15,38.814,-151.806,2.37667e-15,337.306,374.395)"><stop offset="0" style="stop-color:#f2cc0c;stop-opacity:1"/><stop offset="1" style="stop-color:#ff9830;stop-opacity:1"/></linearGradient><linearGradient id="_Linear2" x1="0" y1="0" x2="1" y2="0" gradientUnits="userSpaceOnUse" gradientTransform="matrix(1.41466e-14,38.814,-231.032,2.37667e-15,194.581,111.888)"><stop offset="0" style="stop-color:#f2cc0c;stop-opacity:1"/><stop offset="1" style="stop-color:#ff9830;stop-opacity:1"/></linearGradient></defs></svg>